# xmcd CD database file
#
# Track frame offsets:
#	150
#	8387
#	33287
#	55712
#	78362
#	97337
#	130937
#	157712
#	185387
#	211337
#	218612
#	244787
#	255437
#	265637
#
# Disc length: 3750 seconds
#
# Revision: 0
# Processed by: cddbd v1.5.2PL0 Copyright (c) Steve Scherf et al.
# Submitted via: CDex 1.51
#
DISCID=a60ea40e
DTITLE=Martin Schütz and Hans Koch - Approximations
DYEAR=1989
DGENRE=Jazz
TTITLE0=Yes You Are
TTITLE1=Cardboardhouses
TTITLE2=Both Poles
TTITLE3=They Always Drank Their Tea With Dignity
TTITLE4=Suburbia Mad Song
TTITLE5=Freefall
TTITLE6=Unnecessary Noise Prohibited
TTITLE7=Pippin's Radiator Express
TTITLE8=Remember Coney Island
TTITLE9=Feasibility
TTITLE10=Last Turn
TTITLE11=In Honor of Brog Shence
TTITLE12=Amplified Insects I
TTITLE13=Amplified Insects II
EXTD=YEAR: 1989
EXTT0=
EXTT1=
EXTT2=
EXTT3=
EXTT4=
EXTT5=
EXTT6=
EXTT7=
EXTT8=
EXTT9=
EXTT10=
EXTT11=
EXTT12=
EXTT13=
PLAYORDER=
